<?xml version="1.0" encoding="UTF-8" standalone="no"?>
<!-- Created with Inkscape (http://www.inkscape.org/) -->

<svg
   version="1.1"
   id="svg2"
   width="420.78345"
   height="521.56836"
   viewBox="0 0 420.78345 521.56836"
   sodipodi:docname="CurationTree.svg"
   inkscape:version="1.2.2 (732a01da63, 2022-12-09)"
   inkscape:export-filename="CurationTree.png"
   inkscape:export-xdpi="96"
   inkscape:export-ydpi="96"
   xmlns:inkscape="http://www.inkscape.org/namespaces/inkscape"
   xmlns:sodipodi="http://sodipodi.sourceforge.net/DTD/sodipodi-0.dtd"
   xmlns="http://www.w3.org/2000/svg"
   xmlns:svg="http://www.w3.org/2000/svg">
  <defs
     id="defs6">
    <rect
       x="-1563.8116"
       y="-563.53571"
       width="714.98593"
       height="433.21808"
       id="rect270" />
    <marker
       style="overflow:visible"
       id="Arrow2"
       refX="0"
       refY="0"
       orient="auto-start-reverse"
       inkscape:stockid="Arrow2"
       markerWidth="7.6999998"
       markerHeight="5.5999999"
       viewBox="0 0 7.7 5.6"
       inkscape:isstock="true"
       inkscape:collect="always"
       preserveAspectRatio="xMidYMid">
      <path
         transform="scale(0.7)"
         d="M -2,-4 9,0 -2,4 c 2,-2.33 2,-5.66 0,-8 z"
         style="fill:context-stroke;fill-rule:evenodd;stroke:none"
         id="arrow2L" />
    </marker>
    <rect
       x="503.66003"
       y="400.63867"
       width="95.096649"
       height="83.649834"
       id="rect1267" />
    <rect
       x="503.66003"
       y="400.63867"
       width="95.096649"
       height="83.649834"
       id="rect1327" />
    <rect
       x="503.66003"
       y="400.63867"
       width="95.096649"
       height="83.649834"
       id="rect1680" />
    <rect
       x="503.66003"
       y="400.63867"
       width="95.096649"
       height="83.649834"
       id="rect1692" />
    <rect
       x="503.66003"
       y="400.63867"
       width="95.096649"
       height="83.649834"
       id="rect1704" />
    <rect
       x="503.66003"
       y="400.63867"
       width="95.096649"
       height="83.649834"
       id="rect2549" />
    <rect
       x="503.66003"
       y="400.63867"
       width="95.096649"
       height="83.649834"
       id="rect2561" />
    <rect
       x="503.66003"
       y="400.63867"
       width="95.096649"
       height="83.649834"
       id="rect2573" />
    <rect
       x="-1563.8116"
       y="-563.53571"
       width="714.98593"
       height="433.21808"
       id="rect1040" />
  </defs>
  <sodipodi:namedview
     id="namedview4"
     pagecolor="#ffffff"
     bordercolor="#000000"
     borderopacity="0.25"
     inkscape:showpageshadow="2"
     inkscape:pageopacity="0.0"
     inkscape:pagecheckerboard="0"
     inkscape:deskcolor="#d1d1d1"
     showgrid="true"
     inkscape:zoom="2.2713734"
     inkscape:cx="-862.69393"
     inkscape:cy="-158.27429"
     inkscape:window-width="1269"
     inkscape:window-height="720"
     inkscape:window-x="26"
     inkscape:window-y="75"
     inkscape:window-maximized="0"
     inkscape:current-layer="g8">
    <inkscape:grid
       type="xygrid"
       id="grid1293" />
  </sodipodi:namedview>
  <g
     inkscape:groupmode="layer"
     inkscape:label="Image"
     id="g8"
     transform="translate(-45.484012,-117.25135)">
    <text
       xml:space="preserve"
       id="text1325"
       style="font-style:normal;font-variant:normal;font-weight:normal;font-stretch:normal;font-size:16px;line-height:0px;font-family:'Calisto MT';-inkscape-font-specification:'Calisto MT';white-space:pre;shape-inside:url(#rect1327);display:inline;fill:#000000;fill-opacity:1;stroke:none;stroke-width:1.7224;stroke-linecap:round;stroke-dasharray:none;stroke-opacity:1"
       transform="matrix(3.4216883,0,0,2.4628185,-1371.9967,-566.22114)" />
    <path
       style="fill:#000000;stroke-width:1"
       d="m 316.23861,251.44755 9.00812,-1.79194 -3.2974,-3.91874 c -5.94066,-7.06006 -3.69915,-16.45082 6.30541,-26.41645 3.29321,-3.28039 8.43497,-7.32755 11.42615,-8.99368 l 5.43849,-3.02933 0.91889,7.35452 c 1.0345,8.27986 -0.0713,17.87197 -2.82146,24.47356 -1.0164,2.43984 -1.4065,4.23984 -0.86687,4 0.53963,-0.23984 3.77256,-1.5463 7.18431,-2.90323 l 6.20317,-2.46716 -2.68345,-4.54812 c -3.17016,-5.373 -2.5055,-9.68997 2.50582,-16.2754 3.35591,-4.41004 13.13934,-12.24217 15.29219,-12.24217 1.54523,0 1.44045,19.01848 -0.12747,23.14249 l -1.26077,3.31608 6.45111,-2.68096 c 5.15688,-2.14311 6.60682,-3.45955 7.22729,-6.56185 1.44656,-7.23283 13.98281,-11.88066 26.84315,-9.95212 3.3,0.49486 6,1.51098 6,2.25805 0,0.74707 -3.50746,4.86576 -7.79434,9.15264 -9.06108,9.06108 -14.85948,11.05925 -21.20868,7.30869 -3.71146,-2.19241 -4.08044,-2.16301 -9.76046,0.77766 l -5.90319,3.05621 4,0.86849 c 8.14197,1.76783 17.19095,8.40399 23.86652,17.5028 l 3.56189,4.85484 -8.49009,1.4785 c -12.11712,2.11009 -20.80073,1.78576 -26.93832,-1.00616 -6.80761,-3.09672 -9.00424,-5.81362 -9.92569,-12.27658 l -0.74098,-5.19709 -7.33333,3.42532 -7.33333,3.42532 5.06452,2.61879 c 5.09133,2.63265 15.60214,12.48468 15.60214,14.62425 0,3.31043 -20.75325,4.28595 -27.81637,1.30752 -3.01656,-1.27204 -5.19735,-3.52176 -6.66667,-6.87739 l -2.18362,-4.98694 -7.42813,3.14654 m -3.73575,1.24525 c -4.59913,1.90183 -5.37926,3.1627 -5.15803,3.94345 0.77891,2.74888 20.56665,11.43946 42.62947,18.72244 12.26914,4.05006 23.09914,7.36376 24.06666,7.36376 1.12091,0 1.75911,-1.68998 1.75911,-4.65819 0,-2.59553 1.20301,-6.28555 2.71683,-8.33333 3.14432,-4.25344 17.54408,-11.79696 24.7594,-12.97058 l 4.94289,-0.80398 -2.06765,7.0497 c -2.9294,9.98782 -5.6436,15.33671 -9.98566,19.67878 -4.2569,4.2569 -3.2385,5.37093 4.90991,5.37093 4.2672,0 4.48092,-0.21679 3.76121,-3.81533 -1.57229,-7.86148 6.15696,-16.16638 19.37106,-20.81372 3.23105,-1.13635 6.03153,-1.90922 6.22326,-1.71747 1.00551,1.00549 -2.53072,14.51869 -5.23717,20.01319 l -3.11965,6.33333 h 2.9317 c 1.61243,0 4.81523,-1.8 7.11731,-4 5.7566,-5.50131 15.46495,-5.62787 25.57063,-0.33333 18.38184,6.81568 -9.02989,13.9736 -14.88926,14.23701 -5.98194,0.0852 -7.16596,-0.38201 -10.2826,-4.0578 -3.47362,-4.0968 -3.63862,-4.14003 -11.96018,-3.133 -4.6409,0.56161 -14.2409,0.50236 -21.33334,-0.1316 -7.09245,-0.63401 -14.35849,-1.17416 -16.14677,-1.20033 l -3.25144,-0.0476 2.72067,2.5347 c 1.49637,1.39408 4.94602,5.25042 7.66589,8.56966 4.44291,5.42199 5.38996,5.96282 9.32388,5.32443 3.59928,-0.58408 5.25827,0.0617 9.32031,3.62825 4.74124,4.16287 8.80541,10.26003 8.80541,13.21008 0,3.33183 -16.70508,0.0919 -21.22163,-4.11588 -1.55517,-1.44888 -2.77837,-4.25476 -2.77837,-6.37327 0,-2.08164 -0.87123,-4.50785 -1.93607,-5.39159 -1.5962,-1.32473 -2.26953,-0.82677 -3.83578,2.83674 -1.04484,2.44394 -3.80202,6.233 -6.12704,8.42012 -5.208,4.89908 -6.71706,3.36164 -6.74736,-6.87428 -0.016,-5.42342 0.6891,-7.74092 3.2992,-10.84284 l 3.31961,-3.94514 -5.95649,-5.4905 c -7.14187,-6.58315 -10.56558,-7.27376 -9.04147,-1.82383 1.71765,6.14204 0.7212,15.66307 -2.39815,22.91417 l -2.96098,6.883 -3.84723,-3.68588 c -4.59843,-4.40556 -11.76824,-18.25008 -11.76824,-22.7238 0,-1.75262 0.92099,-4.96757 2.04663,-7.14433 1.61566,-3.12436 1.68586,-4.07623 0.33333,-4.52045 -3.21093,-1.05462 -48.36267,-17.88306 -53.04663,-19.77094 -4.46601,-1.80002 -6.32925,-1.41109 -43.33333,9.04538 -40.44113,11.42769 -47.70171,14.04278 -57.27417,20.62881 -6.74539,4.64096 -14.05916,11.67632 -14.05916,13.52399 0,1.47706 9.42456,5.73917 15.77486,7.13393 4.12228,0.90541 4.29404,0.78821 3.49731,-2.38619 -2.03655,-8.11424 6.97007,-17.47873 20.63649,-21.45649 8.15372,-2.37323 17.42467,-2.78721 17.42467,-0.77809 0,3.35084 -8.47489,18.75013 -12.73055,23.13205 l -4.73116,4.87151 h 5.85018 c 4.91256,0 6.08842,-0.52294 7.3368,-3.26282 2.44769,-5.3721 7.61565,-7.84829 16.37985,-7.84829 4.34219,0 8.27855,0.38367 8.74748,0.8526 1.29881,1.2988 -5.95487,10.15629 -10.67371,13.03371 -4.50382,2.74629 -10.84445,3.38396 -12.17889,1.2248 -0.7426,-1.20155 -7.33333,-1.98482 -7.33333,-0.87152 0,0.254 0.82868,2.204 1.8415,4.33333 2.54986,5.36073 3.73599,12.53819 2.07204,12.53819 -0.74421,0 -3.72044,-1.20772 -6.61382,-2.68382 -6.30416,-3.21614 -9.86088,-8.11429 -8.65378,-11.91757 0.80814,-2.54619 0.32395,-2.73195 -7.12057,-2.73195 h -7.98765 l 1.96877,3.94651 c 2.38893,4.78872 5.30168,19.68976 4.08639,20.90507 -1.58212,1.5821 -17.94671,-7.47656 -22.14548,-12.2587 -3.24844,-3.69978 -4.11407,-5.90649 -4.11407,-10.48794 0,-5.5233 -0.20835,-5.83367 -4.33333,-6.45538 -3.08154,-0.46442 -4.69068,-0.0348 -5.57036,1.48718 -0.68038,1.17714 -6.87975,9.58701 -13.7764,18.68858 -13.07224,17.25158 -13.21666,17.74132 -5.8117,19.70824 2.24906,0.5974 3.55374,0.16632 4.4741,-1.47826 1.16637,-2.08419 1.7961,-1.8456 6.15845,2.3333 2.67259,2.56019 6.20924,5.02011 7.85924,5.46648 1.65,0.44638 4.2,1.15202 5.66667,1.56811 1.83576,0.52079 2.66666,0.11987 2.66666,-1.28695 0,-2.27273 7.59466,-11.46957 9.47146,-11.46957 0.65737,0 1.19521,3.53631 1.19521,7.85845 v 7.85846 l 12.07476,0.95568 c 6.64111,0.52562 12.47329,0.55713 12.9604,0.07 0.48711,-0.48711 0.71228,-2.89791 0.50039,-5.35734 -0.29259,-3.39605 0.55434,-5.52328 3.52092,-8.84345 l 3.90617,-4.37176 1.64545,4.98577 c 0.905,2.74218 1.27698,6.45392 0.82662,8.24831 -0.93042,3.70705 -0.86455,3.74015 3.86548,1.94179 2.92198,-1.11094 3.25346,-1.7324 2.0868,-3.91235 -2.19255,-4.09681 -1.62919,-8.34611 1.86938,-14.10025 l 3.2427,-5.33334 2.0838,4.95718 c 1.14609,2.72645 2.0838,7.02433 2.0838,9.55085 0,4.55071 0.0375,4.57955 4,3.08384 4.5044,-1.70023 4.85876,-2.55264 2.03528,-4.89592 -3.20906,-2.66328 -3.79251,-9.58257 -1.32751,-15.74321 2.07043,-5.17447 16.4268,-20.28604 19.27228,-20.28604 2.88641,0 3.35548,23.26465 0.60349,29.93222 -1.05328,2.55194 -0.98992,2.55071 3.50523,-0.0675 2.51784,-1.46654 4.75985,-3.91147 4.98225,-5.4332 0.84155,-5.7583 6.35136,-8.97838 16.32724,-9.54207 5.09762,-0.28804 9.2684,-0.0383 9.2684,0.55508 0,2.52249 -7.40109,11.45855 -11.6811,14.10373 -4.07228,2.51682 -5.18847,2.673 -9.07052,1.26923 -3.97948,-1.439 -5.20931,-1.20879 -12.17092,2.27824 -4.25927,2.13345 -14.94412,7.02952 -23.74412,10.88015 -8.8,3.85064 -16.57,7.53132 -17.26667,8.1793 -2.37652,2.21044 11.87624,1.20836 21.96013,-1.54397 5.48526,-1.49716 11.72522,-3.99055 13.86656,-5.54085 4.80559,-3.47918 11.58556,-3.41759 17.23046,0.1565 l 4.15378,2.62999 -5.97213,2.70896 c -7.42237,3.36679 -9.54435,3.41453 -13.389,0.30132 -2.53435,-2.05219 -3.90213,-2.24879 -8.14771,-1.17115 -4.54733,1.15424 -7.15182,3.63735 -3.81516,3.63735 2.72715,0 11.03234,8.71869 14.13203,14.83565 1.78624,3.52496 3.24771,6.72898 3.24771,7.12003 0,1.50008 -11.83566,0.61607 -18.58435,-1.38809 -8.67628,-2.57662 -13.41565,-6.99498 -13.41565,-12.50703 0,-5.4576 -3.7073,-5.40681 -10.02172,0.13732 -8.13454,7.14227 -10.94171,15.80212 -5.1224,15.80212 1.2501,0 17.10305,3.98157 35.22877,8.84796 21.04563,5.65029 34.15197,8.54775 36.26548,8.01729 2.27431,-0.57081 3.54833,-2.02428 4.07275,-4.64634 0.80602,-4.03011 4.99778,-7.52074 10.77157,-8.96986 4.41987,-1.10932 4.6788,2.08876 0.69781,8.61879 l -2.76442,4.53452 3.43608,3.18611 c 4.69944,4.35757 4.35104,5.40618 -2.23059,6.71353 l -5.66667,1.1256 6,2.91011 c 8.71858,4.22868 45.26982,4.3994 45.26982,4.3994 l -9.65707,4.44745 -29.05393,-0.13845 2.79162,2.97154 c 2.25198,2.39711 3.87332,2.86175 8.38726,2.40359 4.14348,-0.42056 6.79206,0.18167 10.20584,2.32056 4.38381,2.74668 4.48588,2.97943 2.07849,4.73975 -1.39244,1.01817 -3.58161,1.85122 -4.86484,1.85122 -4.00945,0 -4.16061,2.60487 -0.23741,4.09132 5.94386,2.25206 9.64132,6.56771 11.77098,13.73907 1.08675,3.65949 1.97591,6.84472 1.97591,7.07828 0,1.27311 -6.71077,0.0397 -11.33333,-2.08297 -8.07135,-3.70638 -10.49666,-7.07398 -9.64854,-13.39719 0.61564,-4.58996 0.13134,-5.96813 -3.62388,-10.31228 l -4.33449,-5.01427 -2.31937,4.8877 c -2.51339,5.29657 -5.64659,8.54858 -6.96552,7.22966 -0.45504,-0.45505 -1.11848,-3.85718 -1.4743,-7.5603 -0.48729,-5.07124 -0.10186,-7.33522 1.56143,-9.1732 2.08649,-2.30554 1.87321,-2.7149 -3.86367,-7.41583 -14.14681,-11.59225 -26.25674,-16.97499 -49.65556,-22.07133 l -12.32389,-2.6842 -2.71777,2.71777 c -1.49478,1.49477 -4.49903,3.07403 -6.67611,3.50944 -2.17708,0.43541 -3.95833,1.20867 -3.95833,1.71833 0,0.50967 2.14676,3.43467 4.77056,6.5 3.13945,3.66775 5.86424,5.57334 7.96926,5.57334 4.76662,0 7.96188,5.78696 7.7611,14.05613 -0.0912,3.75444 -0.89247,8.18412 -1.78066,9.84372 l -1.6149,3.01748 -3.30256,-3.10259 c -6.37179,-5.98598 -8.87439,-11.50501 -8.02546,-17.69865 1.1545,-8.42291 -1.38714,-9.94005 -5.04962,-3.0142 -3.93162,7.43479 -6.4166,7.17579 -7.96266,-0.82992 -1.09417,-5.66583 -0.9152,-6.71443 1.57012,-9.19976 l 2.80506,-2.80504 -6.23679,-5.17733 c -12.91372,-10.72003 -25.69744,-14.43999 -49.48167,-14.39875 -15.70832,0.0272 -34.70551,2.41597 -52.73962,6.63159 -18.23176,4.2618 -40.231808,11.95416 -43.893038,15.34726 -8.33923,7.72854 -7.78282,23.71482 1.85101,53.18203 9.83945,30.09671 50.693198,159.77681 50.693198,160.91357 0,1.21178 -17.06322,2.29814 -48.444208,3.08427 -22.69933,0.56865 -23.90293,0.47027 -26.54278,-2.16957 l -4e-4,-3e-5 c -2.72514,-2.72514 -2.75422,-3.46306 -2.00599,-50.88912 0.9429,-59.76547 -0.59996,-112.00291 -3.74484,-126.79056 -1.69264,-7.95904 -2.08056,-14.22043 -1.52819,-24.66667 1.06169,-20.07827 3.34995,-27.43588 10.40327,-33.45037 l 5.71054,-4.8695 -1.67534,-11.1734 c -0.92143,-6.14537 -2.98719,-13.8734 -4.59057,-17.1734 -2.48485,-5.11421 -2.87292,-7.96841 -2.6287,-19.33333 1.04466,-48.61169 1.02737,-49.29184 -1.33866,-52.66981 -3.08296,-4.40155 -2.96489,-7.06022 0.26798,-6.03415 2.0599,0.65379 2.72605,-0.0328 3.47063,-3.57681 1.74223,-8.29263 7.75029,-21.73887 14.85918,-33.25535 3.91656,-6.34488 7.12101,-12.19488 7.12101,-13 0,-0.80513 -1.52727,-1.46388 -3.39394,-1.46388 -6.85868,0 -12.58111,-9.85355 -12.59862,-21.69376 l -0.007,-5.02711 5.66663,2.83514 c 3.11667,1.55932 7.91667,4.99329 10.66667,7.63102 3.5272,3.38323 5,4.1592 5,2.63436 0,-1.18885 0.33578,-3.0366 0.74619,-4.10609 0.49914,-1.30076 -0.41228,-2.23531 -2.75292,-2.82277 -3.7312,-0.93647 -8.57506,-9.42098 -8.63066,-15.11746 -0.0366,-3.75392 0.63797,-3.72989 7.63739,0.2721 6.39537,3.65661 6.79573,3.39185 2.97817,-1.96942 -6.35682,-8.92732 -7.91913,-14.69984 -7.93069,-29.30268 -0.0121,-15.32322 0.74224,-20 3.22601,-20 1.19078,0 1.5974,3.90644 1.51116,14.51799 -0.11579,14.24751 -0.0397,14.62633 4.08197,20.33333 2.30998,3.19844 4.88378,5.81535 5.71955,5.81535 0.83578,0 3.49407,-4.8 5.90733,-10.66667 2.41325,-5.86666 5.640588,-13.06666 7.171868,-16 2.28805,-4.38302 2.95064,-4.90988 3.7186,-2.95684 0.57541,1.46339 -0.58929,5.81796 -3.03127,11.33334 -2.18116,4.92626 -4.353368,10.56354 -4.827138,12.52729 l -0.86141,3.57047 7.334588,-0.757 c 4.03402,-0.41635 7.33459,-0.37479 7.33459,0.0924 0,0.46715 -2.16982,3.25108 -4.82182,6.18653 -3.3992,3.76251 -5.90272,5.33718 -8.485428,5.33718 -3.34767,0 -3.73674,0.53349 -4.51152,6.18609 -0.46634,3.40236 -0.8479,8.24167 -0.8479,10.75401 v 4.56792 l 7.766678,-9.75401 c 4.27167,-5.36471 11.21843,-13.65401 15.43723,-18.42068 8.70079,-9.83071 26.96583,-36.84241 35.49075,-52.48639 5.48136,-10.05877 5.78194,-10.3601 7.3716,-7.38981 2.49612,4.66405 0.9508,7.64063 -22.65804,43.64372 -6.40803,9.77213 -11.39438,18.02409 -11.08079,18.33768 0.31359,0.3136 3.25461,0.20223 6.53559,-0.24748 5.70573,-0.78205 5.94033,-0.98865 5.38892,-4.74567 -0.59612,-4.06157 2.89555,-9.15334 8.25824,-12.0427 2.34986,-1.26608 2.47049,-0.87384 1.8887,6.14181 -0.52866,6.37489 -0.30613,7.40593 1.48982,6.90284 14.396,-4.03263 17.48745,-5.40124 16.65041,-7.37133 -3.28667,-7.73568 -0.25655,-14.39643 9.40644,-20.67703 l 5.38779,-3.50187 0.4085,6.87663 c 0.22468,3.78213 -0.21596,8.66799 -0.97921,10.85744 -1.30833,3.75311 -1.21257,3.93685 1.67403,3.21236 1.68396,-0.42264 6.60806,-2.3368 10.94246,-4.25368 6.20316,-2.74333 7.42354,-3.74108 5.73295,-4.68717 -5.83228,-3.26391 -3.26617,-14.29874 5.17684,-22.26152 l 4.93756,-4.65671 1.06888,3.84111 c 0.58788,2.11261 1.12395,6.9878 1.19124,10.83377 l 0.1224,6.99265 3.75709,-2.67528 c 2.0664,-1.4714 5.24818,-4.44732 7.0706,-6.61316 2.73202,-3.24681 3.45806,-3.56114 4.13724,-1.79121 0.45307,1.18065 -0.11853,3.18788 -1.27025,4.46049 -1.9416,2.14546 -1.76765,2.37508 2.39008,3.15508 4.48933,0.8422 15.63963,7.25858 15.63963,8.99974 0,1.69196 -12.56026,5.75176 -17.79483,5.75176 -4.92811,0 -8.95787,-2.86416 -10.48792,-7.4543 -0.46892,-1.40677 -10.72087,3.06006 -18.08179,7.87834 -2.94417,1.92717 -2.76476,2.07386 6.248,5.10888 8.4512,2.8459 9.61402,2.95022 13.0312,1.16908 2.41008,-1.2562 5.42106,-1.65616 8.41867,-1.11826 5.84103,1.04812 14.66667,5.40815 14.66667,7.24559 0,1.73569 -10.65247,6.51359 -16.71607,7.49757 -3.88352,0.6302 -5.14307,0.11947 -8.45841,-3.42958 -5.27059,-5.64218 -8.15968,-5.57488 -7.00922,0.16328 1.12347,5.60353 0.38519,13 -1.29761,13 -0.72179,0 -4.32741,-3.01507 -8.01249,-6.70015 -5.65983,-5.65984 -6.63334,-7.35905 -6.26984,-10.94375 0.395,-3.89541 0.0484,-4.32181 -4.22364,-5.19701 -2.55967,-0.5244 -5.25967,-0.47223 -6,0.116 -0.74034,0.58816 -5.14556,2.44033 -9.7894,4.11595 -7.02344,2.53422 -8.03246,3.26313 -6,4.33437 4.49117,2.36715 12.64089,10.88627 15.25009,15.94132 l 2.58079,5 h -8.77002 c -16.85549,-7e-5 -27.28422,-5.43083 -27.28422,-14.20831 0,-3.06633 -0.35144,-3.26168 -4.33334,-2.40861 -2.38333,0.5106 -4.55641,1.13135 -4.82906,1.37944 -0.27265,0.24811 1.37735,2.32416 3.66667,4.61348 2.28932,2.28932 4.16239,4.71624 4.16239,5.39316 0,0.67693 -3,1.23077 -6.66666,1.23077 -6.61335,0 -12,-3.0592 -12,-6.81505 0,-2.8982 -9.8556,0.12427 -12.66667,3.8846 -1.46667,1.96192 -10.70312,13.77388 -20.525448,26.24879 -18.75785,23.82353 -25.93941,36.29156 -27.57939,47.88106 l -0.92442,6.53274 5.43635,-0.86931 c 2.98999,-0.47812 7.03461,-1.47696 8.98804,-2.21965 3.42221,-1.30112 3.47367,-1.46943 1.41161,-4.61652 -1.17704,-1.79639 -2.1269,-4.93728 -2.11079,-6.97975 0.0335,-4.25024 3.84224,-12.82016 7.87244,-17.71357 2.33546,-2.8357 2.94764,-3.03475 4.1005,-1.33334 2.38387,3.51814 5.61487,16.1418 4.98064,19.45956 -0.69204,3.6202 0.12884,3.97143 3.50763,1.50082 1.844288,-1.34859 2.065588,-2.41096 1.055578,-5.0675 -1.901588,-5.00154 -0.477108,-9.7707 4.73825,-15.86366 3.88128,-4.5344 12.90387,-10.69588 15.66256,-10.69588 1.35341,0 0.72246,15.01501 -0.85174,20.26922 -1.67648,5.59558 -6.55494,10.39744 -10.5633,10.39744 -1.34303,0 -6.09445,2.36079 -10.558728,5.24618 -4.46427,2.8854 -8.75278,5.45816 -9.53003,5.71724 -0.80036,0.26678 0.0981,2.698 2.07188,5.60654 3.94737,5.81679 4.4323,8.76338 1.44221,8.76338 -3.80126,0 -11.06743,-3.7585 -12.52255,-6.47739 l -1.44668,-2.70316 -6.52739,2.71267 -6.52739,2.71266 0.20008,18.62944 0.20009,18.62944 4.22864,-0.79261 c 2.32576,-0.43593 7.20191,-1.67557 10.83589,-2.75475 l 6.60724,-1.96214 -0.66842,-5.93024 c -0.53946,-4.78607 0.0176,-7.10076 2.88698,-11.99708 1.95548,-3.33676 3.80901,-6.06684 4.11896,-6.06684 1.20364,0 3.88634,6.29328 5.2716,12.36646 1.370088,6.00675 1.599938,6.25839 4.067918,4.45376 2.4461,-1.78862 2.47231,-2.07188 0.40404,-4.36646 -5.539838,-6.146 -3.43682,-18.41442 4.78744,-27.92847 l 4.4319,-5.12696 2.87216,5.62991 c 1.57969,3.09644 3.2425,8.33181 3.69514,11.63416 0.45264,3.30234 1.27887,6.00426 1.83608,6.00426 0.55721,0 2.96021,-3.03429 5.33999,-6.74286 l 4.32689,-6.74286 -2.85456,-1.99941 c -2.25155,-1.57705 -2.85456,-3.36868 -2.85456,-8.48143 0,-7.0572 0.9536,-10.7001 2.80096,-10.7001 0.65027,0 2.94993,2.44012 5.11034,5.42248 l 3.92802,5.42248 2.17511,-4.2062 c 2.04018,-3.94527 2.02637,-4.31495 -0.22269,-5.95951 -2.88857,-2.11216 -3.0818,-10.07387 -0.38864,-16.01259 1.11166,-2.4513 1.83648,-8.98884 1.87211,-16.88532 0.032,-7.08693 0.50454,-13.33334 1.05016,-13.88092 1.54806,-1.55362 10.01393,3.4578 17.89271,10.59172 6.25634,5.66486 6.99662,6.03608 5.8093,2.9132 -1.88322,-4.95322 -1.80267,-5.34217 2.0559,-9.92782 3.29194,-3.91223 16.87987,-9.6255 18.65963,-7.84572 0.42639,0.42638 0.0133,3.31864 -0.91812,6.42722 -2.00944,6.70692 -9.00309,14.60764 -12.93057,14.60764 -2.20927,0 -3.21848,1.43982 -4.84256,6.90867 -1.12842,3.79977 -2.05166,7.00803 -2.05166,7.12945 0,0.12147 3.05216,-1.2897 6.78258,-3.13588 4.93693,-2.44325 9.65361,-3.52285 17.33333,-3.96742 5.80292,-0.33592 10.54513,-0.0837 10.53825,0.56053 -0.0311,2.90139 -8.79212,16.0528 -14.18656,21.2956 -6.64681,6.45996 -13.22097,8.51588 -19.56904,6.11975 l -3.92533,-1.48166 0.78375,6.6175 c 0.43105,3.63962 2.04126,9.46033 3.57822,12.9349 l 2.7945,6.3174 2.70765,-4.27642 c 5.75772,-9.09372 23.06469,-18.0075 45.14528,-23.25162 8.13379,-1.93177 13.17215,-4.03678 17.80899,-7.44054 5.12693,-3.76351 6.04598,-4.9818 4.4373,-5.88207 -4.0085,-2.24327 -5.29394,-9.75148 -2.98476,-17.43403 1.15955,-3.85778 3.04107,-8.21416 4.18116,-9.68082 l 2.0729,-2.66667 2.06306,2.66667 c 2.91866,3.77257 7.04139,12.90041 7.07611,15.66666 0.0445,3.54294 2.05124,2.83982 7.97313,-2.79354 6.66752,-6.34267 6.80272,-8.20646 0.59531,-8.20646 -6.56675,0 -11.73727,-4.06846 -15.71503,-12.3655 -3.76578,-7.8549 -5.9809,-19.6345 -3.69221,-19.6345 3.33839,0 16.34425,5.72664 21.51853,9.47487 3.07867,2.23017 5.70384,3.86068 5.83372,3.62333 0.12987,-0.23734 0.90026,-2.23153 1.71196,-4.43153 0.81171,-2.2 1.86787,-4.93019 2.347,-6.06708 0.61794,-1.46621 -0.43621,-2.69052 -3.6264,-4.21181 -10.16489,-4.84731 -11.65877,-20.478 -3.49446,-36.56299 2.37052,-4.67031 4.69061,-8.49145 5.15576,-8.49145 1.98601,0 11.01906,15.96406 13.01822,23.00704 2.07668,7.31605 2.29222,7.57053 4.62431,5.46002 1.34536,-1.21753 2.44611,-3.7872 2.44611,-5.71037 0,-4.7578 3.20714,-8.97023 9.0881,-11.9368 8.37088,-4.22256 10.91292,-4.66776 10.90446,-1.90975 -0.0271,8.82442 -7.15764,20.42319 -12.55554,20.42319 -5.15182,0 -5.11994,1.84831 0.0569,3.30079 6.7737,1.90052 6.96044,3.9611 0.58996,6.51006 -3.962,1.58528 -6.25996,1.80275 -8.80894,0.83363 -1.89672,-0.72113 -3.6383,-1.31115 -3.8702,-1.31115 -0.23189,0 -1.95266,2.00731 -3.82394,4.4607 l -3.40234,4.46069 9.91075,-0.63604 c 5.82719,-0.37396 9.91075,-0.11333 9.91075,0.63264 0,2.23129 -9.4634,12.41413 -13.45566,14.4786 -2.24946,1.16324 -5.24756,1.64373 -7.1995,1.15383 -2.99943,-0.75282 -3.33516,-0.44592 -3.25112,2.9717 0.0515,2.09618 0.52262,4.89896 1.04686,6.22844 0.91098,2.31022 1.10003,2.3017 4.27099,-0.19258 1.8248,-1.43539 7.35371,-4.8282 12.28647,-7.53958 5.68586,-3.12536 8.96862,-5.76976 8.96862,-7.22464 0,-5.49148 11.81366,-12.09968 21.66667,-12.11965 4.59717,-0.009 4.57575,0.70367 -0.24973,8.31268 -5.3876,8.49536 -9.31974,10.85315 -16.41451,9.84249 -4.32557,-0.61618 -6.40627,-0.23604 -8.77968,1.60406 l -3.11059,2.41164 5.38795,1.61426 c 2.96337,0.88784 5.73525,2.17623 6.15975,2.86308 0.9989,1.61626 -8.88148,7.85534 -14.0894,8.89692 -3.08783,0.61758 -4.7859,0.0836 -7.32776,-2.30438 l -3.30856,-3.10824 -2.77876,2.77876 -2.77876,2.77876 4.61562,1.52329 c 4.96175,1.63753 11.38763,7.51049 9.87384,9.02427 -0.50721,0.50721 -4.53093,1.18324 -8.94161,1.50228 -6.44275,0.46602 -8.54789,0.10173 -10.70741,-1.85255 -2.62223,-2.37307 -2.76739,-2.33628 -5.93106,1.50299 -1.78366,2.16457 -4.4776,5.96208 -5.9865,8.43889 l -2.74347,4.50331 3.05532,-0.83531 c 1.68047,-0.45943 12.95536,-2.99187 25.05536,-5.62767 12.1,-2.6358 22.28677,-5.39638 27.58367,-6.8956 m -86.9174,154.35193 c 0.45322,-0.73333 -0.14678,-1.33333 -1.33334,-1.33333 -1.18656,0 -1.78656,0.6 -1.33333,1.33333 0.45323,0.73334 1.05323,1.33334 1.33333,1.33334 0.28011,0 0.88011,-0.6 1.33334,-1.33334 z m -91.3491,-12.11637 c 17.958,-2.97421 32.85939,-5.61615 33.1142,-5.87095 0.2548,-0.25481 -0.82021,-1.1502 -2.38892,-1.98974 -4.35912,-2.33292 -8.0323,-9.39532 -8.03786,-15.45426 l -0.005,-5.43133 -7.9671,-1.48164 -7.96711,-1.48164 -20.66426,14.01188 c -25.179528,17.07379 -33.473248,25.64984 -23.067848,23.85345 2.38334,-0.41146 19.026238,-3.18156 36.984238,-6.15577 z m 87.7319,-8.69629 c 3.14388,-4.00504 5.35846,-7.86062 4.9213,-8.56795 -0.43714,-0.70733 -2.54124,-1.28605 -4.67576,-1.28605 -2.13452,0 -10.2471,-0.94578 -18.02794,-2.10174 -16.33832,-2.42728 -22.29208,-1.47453 -12.03012,1.9251 7.94126,2.63082 8.9234,4.66908 3.58097,7.43176 -4.84157,2.50366 -10.99979,2.69437 -13.28991,0.41154 -1.3384,-1.33413 -2.18376,-1.0016 -4.23702,1.66667 -1.41076,1.83333 -2.57836,3.69352 -2.59467,4.13376 -0.0163,0.44023 3.42035,0.94164 7.63701,1.11423 4.21667,0.1726 10.36667,0.7873 13.66667,1.36602 3.3,0.57872 9,1.08288 12.66667,1.12038 6.51581,0.0667 6.796,-0.0967 12.3828,-7.21372 z M 100.72271,374.91675 c 22.28381,-11.37131 43.2645,-31.83063 57.66023,-56.22737 l 5.50729,-9.33334 -2.08386,-7.10538 c -1.5481,-5.2785 -1.96444,-11.47671 -1.61936,-24.10699 l 0.46452,-17.00161 -4.33334,1.3307 c -2.73792,0.84078 -4.33333,2.19247 -4.33333,3.67136 0,1.28736 -1.5,4.12331 -3.33333,6.3021 -1.83334,2.1788 -3.33334,4.29033 -3.33334,4.6923 0,0.40198 2.4866,0.91536 5.52578,1.14086 l 5.52577,0.41 -4.06072,4.33333 c -3.03176,3.23529 -5.20409,4.33333 -8.57293,4.33333 -4.23518,0 -4.77975,0.54255 -8.8698,8.83672 -2.46542,4.99963 -3.60287,8.55286 -2.6195,8.18298 6.78473,-2.55198 8.13564,-2.64559 7.31495,-0.5069 -0.45459,1.18463 -0.39535,2.15611 0.13164,2.15886 0.52698,0.003 3.03926,1.27365 5.58285,2.82425 l 4.6247,2.81928 -5.95804,3.11549 c -6.73716,3.5229 -13.55407,4.11614 -16.25557,1.41463 -1.53959,-1.53957 -3.34779,-1.05265 -11.68817,3.14749 -9.19464,4.63035 -9.6684,5.07504 -6.95435,6.52755 3.0968,1.65736 6.94006,7.97788 6.94006,11.41344 0,5.01711 -13.19288,-1.18097 -14.61009,-6.86391 l -0.72324,-2.90014 -6.333338,2.75178 c -3.48333,1.51348 -6.33333,3.14592 -6.33333,3.62766 0,0.48173 1.65,1.859 3.66667,3.06058 2.01666,1.20159 5.75973,4.35712 8.31792,7.0123 3.827978,3.9731 4.302008,5.04344 2.678148,6.04704 -2.872078,1.77504 -15.448548,3.12072 -20.401908,2.18301 -8.08708,-1.53096 -9.3093,-1.51269 -9.8951,0.14789 -0.38893,1.10251 0.81815,1.66667 3.56598,1.66667 4.60662,0 12.59249,2.94544 13.95261,5.14616 1.58243,2.56041 -9.58255,7.1122 -16.25612,6.62737 -5.6051,-0.40721 -6.15222,-0.16238 -7.30173,3.26736 -0.86986,2.59535 -0.58606,6.65868 0.94601,13.54507 l 2.18864,9.83749 8.26944,-5.00437 c 4.54819,-2.75241 14.90147,-8.38868 23.007288,-12.52504 z m 81.88087,-2.41616 c 0.0531,-0.946 -6.65587,-2.88519 -7.40163,-2.13943 -0.25752,0.25754 -0.1,2.73775 0.35019,5.51159 l 0.81843,5.04336 3.09253,-3.78004 c 1.70089,-2.07901 3.11411,-4.16499 3.14048,-4.63548 z M 67.998312,355.32939 c 3.24051,-6.4194 3.76711,-8.55868 2.62988,-10.68361 -2.1559,-4.02834 -6.02233,-1.18814 -7.71406,5.66657 -1.22624,4.9686 -0.89175,13.04369 0.5403,13.04369 0.27062,0 2.31537,-3.612 4.54388,-8.02665 z"
       id="path293"
       sodipodi:nodetypes="ccssscsssscsssscssssssscsscssscccsssscccsssssscssssssscssccsssscsssssssssssscssscssssssssssssscsssssssssssscssssssssssssssscsssscssssscssssssssssssssssssscssssssssssssssscsscscccssssssssssscsssssscssssssscssssscsssscssccsssscsssssssssccsssssssssssssssssscsssssscssssssssssssscsssssscsccsssssssssssssssssssscssscssssssssssscsssssssssssssssssscccccsscssssssscsssscsssscssssssssscssssscsscsscsssssscsssssssssssssssssssssssscssssssssscssscsssscccsssssscsscssssscsssccccsccssssssssssssssscsscssssscssssscscsssssscsssssssssssscssssccsssssss" />
    <rect
       style="fill:#ffffff;fill-opacity:1;stroke:#000000;stroke-width:5;stroke-linecap:round;stroke-dasharray:none;stroke-opacity:1"
       id="rect443"
       width="66.039337"
       height="42.265179"
       x="331.95773"
       y="397.9971"
       ry="13.149167"
       rx="6.831656" />
    <rect
       style="fill:#ffffff;fill-opacity:1;stroke:#000000;stroke-width:5;stroke-linecap:round;stroke-dasharray:none;stroke-opacity:1"
       id="rect1207"
       width="66.039337"
       height="42.265179"
       x="110.94608"
       y="119.75135"
       ry="13.149167"
       rx="6.831656" />
    <rect
       style="fill:#ffffff;fill-opacity:1;stroke:#000000;stroke-width:5;stroke-linecap:round;stroke-dasharray:none;stroke-opacity:1"
       id="rect1209"
       width="66.039337"
       height="42.265179"
       x="242.14424"
       y="287.05103"
       ry="13.149167"
       rx="6.831656" />
    <rect
       style="fill:#ffffff;fill-opacity:1;stroke:#000000;stroke-width:5;stroke-linecap:round;stroke-dasharray:none;stroke-opacity:1"
       id="rect1211"
       width="66.039337"
       height="42.265179"
       x="302.90042"
       y="147.04762"
       ry="13.149167"
       rx="6.831656" />
    <text
       xml:space="preserve"
       id="text1690"
       style="font-style:normal;font-variant:normal;font-weight:normal;font-stretch:normal;font-size:16px;line-height:0px;font-family:'Calisto MT';-inkscape-font-specification:'Calisto MT';white-space:pre;shape-inside:url(#rect1692);display:inline;fill:#000000;fill-opacity:1;stroke:none;stroke-width:1.7224;stroke-linecap:round;stroke-dasharray:none;stroke-opacity:1"
       transform="matrix(2.674247,0,0,1.9248349,-1024.415,-600.86737)"><tspan
         x="503.66016"
         y="404.99653"
         id="tspan1686"><tspan
           style="stroke-width:0.194564"
           id="tspan1684">B</tspan></tspan></text>
    <text
       xml:space="preserve"
       id="text2547"
       style="font-style:normal;font-variant:normal;font-weight:normal;font-stretch:normal;font-size:16px;line-height:0px;font-family:'Calisto MT';-inkscape-font-specification:'Calisto MT';white-space:pre;shape-inside:url(#rect2549);display:inline;fill:#000000;fill-opacity:1;stroke:none;stroke-width:1.7224;stroke-linecap:round;stroke-dasharray:none;stroke-opacity:1"
       transform="matrix(2.674247,0,0,1.9248349,-1219.3257,-627.98318)"><tspan
         x="503.66016"
         y="404.99653"
         id="tspan1690"><tspan
           style="stroke-width:0.194564"
           id="tspan1688">A</tspan></tspan></text>
    <text
       xml:space="preserve"
       id="text2559"
       style="font-style:normal;font-variant:normal;font-weight:normal;font-stretch:normal;font-size:16px;line-height:0px;font-family:'Calisto MT';-inkscape-font-specification:'Calisto MT';white-space:pre;shape-inside:url(#rect2561);display:inline;fill:#000000;fill-opacity:1;stroke:none;stroke-width:1.7224;stroke-linecap:round;stroke-dasharray:none;stroke-opacity:1"
       transform="matrix(2.674247,0,0,1.9248349,-1087.4485,-460.86396)"><tspan
         x="503.66016"
         y="404.99653"
         id="tspan1694"><tspan
           style="stroke-width:0.194564"
           id="tspan1692">C</tspan></tspan></text>
    <text
       xml:space="preserve"
       id="text2571"
       style="font-style:normal;font-variant:normal;font-weight:normal;font-stretch:normal;font-size:16px;line-height:0px;font-family:'Calisto MT';-inkscape-font-specification:'Calisto MT';white-space:pre;shape-inside:url(#rect2573);display:inline;fill:#000000;fill-opacity:1;stroke:none;stroke-width:1.7224;stroke-linecap:round;stroke-dasharray:none;stroke-opacity:1"
       transform="matrix(2.674247,0,0,1.9248349,-998.86768,-349.91789)"><tspan
         x="503.66016"
         y="404.99653"
         id="tspan1698"><tspan
           style="stroke-width:0.194564"
           id="tspan1696">D</tspan></tspan></text>
    <rect
       style="fill:none;fill-opacity:1;stroke:#000000;stroke-width:1;stroke-linecap:round;stroke-opacity:1;stroke-dasharray:none"
       id="rect1565"
       width="141.32419"
       height="63.838028"
       x="-800.70007"
       y="-66.33802"
       rx="0"
       ry="0"
       inkscape:export-filename="CurationTree.png"
       inkscape:export-xdpi="74.030632"
       inkscape:export-ydpi="74.030632" />
    <path
       d="m -735.53728,-96.242247 1.53678,-0.941483 -0.88565,-0.467884 c -1.59571,-0.842924 -1.84513,-2.665896 -0.70169,-5.128056 0.37636,-0.81046 1.03996,-1.88501 1.47461,-2.38788 l 0.79026,-0.91429 0.6892,1.24265 c 0.77592,1.39899 1.24935,3.17913 1.20775,4.54194 -0.0153,0.503658 0.0399,0.850342 0.12244,0.77041 0.0826,-0.07992 0.58739,-0.53564 1.12153,-1.01268 l 0.97117,-0.86736 -0.81679,-0.62213 c -0.96491,-0.73498 -1.14715,-1.54769 -0.68692,-3.06404 0.30816,-1.01544 1.56146,-3.08337 1.95899,-3.23231 0.28534,-0.10686 1.60943,3.27821 1.61118,4.11916 l 10e-4,0.67619 1.00188,-0.92249 c 0.80087,-0.73742 0.97561,-1.07154 0.87105,-1.66546 -0.24381,-1.3847 1.74278,-3.07752 4.25369,-3.62473 0.64433,-0.14042 1.21467,-0.14674 1.26745,-0.0141 0.0516,0.13319 -0.30394,1.10686 -0.79275,2.16485 -1.03309,2.23622 -1.96266,2.99228 -3.40001,2.76541 -0.84019,-0.13262 -0.90625,-0.10188 -1.74737,0.8134 l -0.87418,0.95123 0.79998,-0.12249 c 1.62835,-0.24933 3.76802,0.30327 5.64345,1.45746 l 1.00065,0.61583 -1.46328,0.84998 c -2.08845,1.213096 -3.71484,1.756269 -5.04536,1.685021 -1.47582,-0.07902 -2.07334,-0.409597 -2.70005,-1.493721 l -0.50395,-0.87179 -1.11216,1.115719 -1.11218,1.115729 1.12018,0.114726 c 1.12611,0.115339 3.76291,1.137968 3.91405,1.51798 0.23376,0.588001 -3.52946,2.197036 -5.04404,2.156798 -0.64687,-0.01722 -1.20847,-0.265916 -1.71683,-0.760252 l -0.75548,-0.734657 -1.14941,1.072779"
       style="fill:#ffffff;fill-opacity:1;stroke-width:0.194123"
       id="path1203" />
    <g
       id="g1629"
       transform="translate(-0.04588294,2.263542)">
      <text
         xml:space="preserve"
         transform="matrix(2.1476349,0,0,2.1476349,2564.5889,1161.9453)"
         id="text268"
         style="font-size:16px;line-height:0px;font-family:'Calisto MT';-inkscape-font-specification:'Calisto MT';white-space:pre;shape-inside:url(#rect270);display:inline;fill:#ffffff;fill-opacity:1;stroke:none;stroke-width:5;stroke-linecap:round"
         inkscape:export-filename="CurationTree.png"
         inkscape:export-xdpi="96"
         inkscape:export-ydpi="96"><tspan
           x="-1563.8125"
           y="-559.08984"
           id="tspan1702"><tspan
   style="font-family:Cambria;-inkscape-font-specification:Cambria"
   id="tspan1700">Curation</tspan>
</tspan><tspan
           x="-1563.8125"
           y="-559.08983"
           id="tspan1704">
</tspan></text>
      <text
         xml:space="preserve"
         transform="matrix(2.1476349,0,0,2.1476349,2622.0885,1189.0124)"
         id="text1038"
         style="font-size:16px;line-height:0px;font-family:'Calisto MT';-inkscape-font-specification:'Calisto MT';white-space:pre;shape-inside:url(#rect1040);display:inline;fill:#ffffff;fill-opacity:1;stroke:none;stroke-width:5;stroke-linecap:round"><tspan
           x="-1563.8125"
           y="-559.08984"
           id="tspan1708"><tspan
             style="font-family:Cambria;-inkscape-font-specification:Cambria"
             id="tspan1706">Tree</tspan></tspan></text>
      <g
         id="g1285"
         transform="matrix(0.47061897,0,0,0.47061897,-686.47028,-283.1928)">
        <rect
           style="fill:#ffffff;fill-opacity:1;stroke:#000000;stroke-width:5;stroke-linecap:round;stroke-dasharray:none;stroke-opacity:1"
           id="rect1329"
           width="66.039337"
           height="42.265179"
           x="-182.2686"
           y="532.71735"
           ry="13.149167"
           rx="6.831656" />
        <path
           style="fill:#000000;fill-opacity:1;stroke:#000000;stroke-width:3.79969;stroke-linecap:round;stroke-dasharray:none;stroke-opacity:1;marker-end:url(#Arrow2)"
           d="m -165.13281,555.8545 h 11.5062"
           id="path1385"
           sodipodi:nodetypes="cc" />
      </g>
    </g>
    <rect
       style="fill:#ffffff;fill-opacity:1;stroke:none;stroke-width:5;stroke-linecap:round"
       id="rect1567"
       width="0"
       height="1.7610487"
       x="-657.17462"
       y="-92.753754"
       rx="0" />
  </g>
</svg>
